<?xml version="1.0" encoding="iso-8859-1"?>
<!-- Generator: Adobe Illustrator 14.0.0, SVG Export Plug-In . SVG Version: 6.00 Build 43363)  -->
<!DOCTYPE svg PUBLIC "-//W3C//DTD SVG 1.1//EN" "http://www.w3.org/Graphics/SVG/1.1/DTD/svg11.dtd">
<svg version="1.1" xmlns="http://www.w3.org/2000/svg" xmlns:xlink="http://www.w3.org/1999/xlink" x="0px" y="0px"
	 width="116.95px" height="116.998px" viewBox="0 0 116.95 116.998" style="enable-background:new 0 0 116.95 116.998;"
	 xml:space="preserve">
<g id="Layer_1">
</g>
<g id="Layer_2">
	<g>
		<g>
			<path style="fill-rule:evenodd;clip-rule:evenodd;" d="M53.764,88.286l1.874-13.337c-3.77-0.599-7.341-2.476-9.994-5.557
				l-44.454,33.5l52.503-14.649L53.764,88.286z"/>
			<path style="fill-rule:evenodd;clip-rule:evenodd;" d="M54.695,88.849l46.575,28.149L67.587,72.301
				c-3.329,2.258-7.209,3.141-10.957,2.773L54.695,88.849z"/>
		</g>
		<g>
			<path style="fill-rule:evenodd;clip-rule:evenodd;" d="M28.656,54.805l0.023,0.084L0,101.284l44.433-33.482
				c-2.283-3.395-3.142-7.354-2.708-11.161L28.656,54.805z"/>
			<path style="fill-rule:evenodd;clip-rule:evenodd;" d="M28.369,53.754l13.499,1.897c0.657-3.754,2.584-7.294,5.71-9.905
				L14.022,1.218L28.369,53.754z"/>
		</g>
		<g>
			<path style="fill-rule:evenodd;clip-rule:evenodd;" d="M62.213,28.164L15.61,0l33.576,44.557
				c3.387-2.203,7.313-3.01,11.081-2.548L62.213,28.164z"/>
			<path style="fill-rule:evenodd;clip-rule:evenodd;" d="M61.256,42.162c3.683,0.676,7.151,2.576,9.725,5.635l44.787-33.749
				L63.255,27.94L61.256,42.162z"/>
		</g>
		<g>
			<path style="fill-rule:evenodd;clip-rule:evenodd;" d="M88.911,62.263l28.039-46.601L72.177,49.399
				c2.179,3.323,3.01,7.169,2.615,10.879L88.911,62.263z"/>
			<path style="fill-rule:evenodd;clip-rule:evenodd;" d="M74.657,61.27c-0.618,3.698-2.469,7.197-5.482,9.814l33.709,44.733
				l-14.006-52.55L74.657,61.27z"/>
		</g>
	</g>
</g>
</svg>
